<svg width="47" height="42" viewBox="0 0 47 42" fill="none" xmlns="http://www.w3.org/2000/svg">
<path d="M34.87 7.65625C36.7554 7.65625 37.6983 7.65646 38.2841 8.24219C38.8696 8.82799 38.87 9.77094 38.87 11.6562V32.5254C38.87 34.4107 38.8698 35.3537 38.2841 35.9395C37.6983 36.5251 36.7553 36.5254 34.87 36.5254H18.0643C16.1787 36.5254 15.2351 36.5252 14.6493 35.9395C14.1659 35.456 14.0859 34.7289 14.0712 33.4297H17.8807L18.0848 33.4199C19.0933 33.3174 19.8807 32.4652 19.8807 31.4297C19.8804 30.3945 19.093 29.5429 18.0848 29.4404L17.8807 29.4297H14.0643V24.9395H17.8807L18.0848 24.9287C19.0931 24.8262 19.8806 23.9748 19.8807 22.9395C19.8805 21.9042 19.0932 21.0517 18.0848 20.9492L17.8807 20.9395H14.0643V16.4482H17.8807L18.0848 16.4375C19.0932 16.335 19.8807 15.4837 19.8807 14.4482C19.8805 13.413 19.0931 12.5615 18.0848 12.459L17.8807 12.4482H14.0643V11.6562C14.0643 9.7711 14.0639 8.82801 14.6493 8.24219C15.2351 7.65641 16.1787 7.65625 18.0643 7.65625H34.87ZM17.9823 30.4355C18.4864 30.4867 18.8804 30.9122 18.8807 31.4297C18.8807 31.9475 18.4866 32.3736 17.9823 32.4248L17.8807 32.4297H10.2479C9.69564 32.4297 9.24792 31.982 9.24792 31.4297C9.24833 30.8778 9.69589 30.4297 10.2479 30.4297H17.8807L17.9823 30.4355ZM17.9823 21.9443C18.4865 21.9955 18.8805 22.4218 18.8807 22.9395C18.8806 23.4571 18.4864 23.8824 17.9823 23.9336L17.8807 23.9395H10.2479C9.69575 23.9395 9.2481 23.4916 9.24792 22.9395C9.24817 22.3874 9.69579 21.9395 10.2479 21.9395H17.8807L17.9823 21.9443ZM31.2372 13.4482C30.7197 13.4483 30.2936 13.8418 30.2421 14.3457L30.2372 14.4482V17.8447C30.2372 18.397 30.6849 18.8447 31.2372 18.8447C31.7894 18.8447 32.2372 18.397 32.2372 17.8447V14.4482L32.2323 14.3457C32.1808 13.8418 31.7546 13.4483 31.2372 13.4482ZM17.9823 13.4531C18.4865 13.5042 18.8805 13.9306 18.8807 14.4482C18.8807 14.966 18.4866 15.3922 17.9823 15.4434L17.8807 15.4482H10.2479C9.69564 15.4482 9.24792 15.0005 9.24792 14.4482C9.24817 13.8962 9.69579 13.4482 10.2479 13.4482H17.8807L17.9823 13.4531Z" fill="#4979D1"/>
</svg>
