<svg width="37" height="37" viewBox="0 0 37 37" fill="none" xmlns="http://www.w3.org/2000/svg">
<path fill-rule="evenodd" clip-rule="evenodd" d="M36.5375 18.4012C36.5375 28.2489 28.564 36.232 18.7282 36.232C8.89243 36.232 0.918945 28.2489 0.918945 18.4012C0.918945 8.55345 8.89243 0.570312 18.7282 0.570312C28.564 0.570312 36.5375 8.55345 36.5375 18.4012ZM19.2371 26.0429C19.2371 26.6057 18.7814 27.0619 18.2194 27.0619C17.6573 27.0619 17.2017 26.6057 17.2017 26.0429C17.2017 25.4802 17.6573 25.024 18.2194 25.024C18.7814 25.024 19.2371 25.4802 19.2371 26.0429ZM20.4757 16.1698C18.543 16.7504 17.2191 18.5297 17.2189 20.5477V24.0048H19.2189V20.5477C19.2191 19.4126 19.9638 18.4114 21.0509 18.0848C22.9839 17.5042 24.3078 15.7252 24.3078 13.7069V13.1044C24.3078 10.1318 21.8975 7.72156 18.925 7.72156H17.716C14.6315 7.72162 12.1311 10.2221 12.131 13.3065H14.131C14.1311 11.3266 15.7361 9.72162 17.716 9.72156H18.925C20.793 9.72156 22.3078 11.2364 22.3078 13.1044V13.7069C22.3078 14.8422 21.5631 15.8432 20.4757 16.1698Z" fill="#4979D1"/>
</svg>
