<svg width="37" height="36" viewBox="0 0 37 36" fill="none" xmlns="http://www.w3.org/2000/svg">
<path d="M32.3632 19.6022C32.4395 19.045 32.4776 18.4692 32.4776 17.8562C32.4776 17.2619 32.4395 16.6675 32.3441 16.1103L36.2157 13.1756C36.559 12.9156 36.6544 12.4141 36.4446 12.0426L32.7828 5.87614C32.5539 5.46751 32.0771 5.3375 31.6576 5.46751L27.0994 7.2506C26.1458 6.54479 25.135 5.95043 24.0097 5.50466L23.3232 0.786916C23.2469 0.341145 22.8654 0.0253906 22.4077 0.0253906H15.0841C14.6264 0.0253906 14.264 0.341145 14.1878 0.786916L13.5012 5.50466C12.3759 5.95043 11.3461 6.56337 10.4115 7.2506L5.85336 5.46751C5.43378 5.31892 4.95699 5.46751 4.72813 5.87614L1.08541 12.0426C0.856544 12.4327 0.932832 12.9156 1.31427 13.1756L5.18585 16.1103C5.09049 16.6675 5.0142 17.2804 5.0142 17.8562C5.0142 18.432 5.05235 19.045 5.14771 19.6022L1.27612 22.5368C0.932832 22.7969 0.837473 23.2984 1.04726 23.6698L4.70905 29.8363C4.93792 30.245 5.41471 30.375 5.83429 30.245L10.3925 28.4619C11.3461 29.1677 12.3569 29.762 13.4821 30.2078L14.1687 34.9256C14.264 35.3713 14.6264 35.6871 15.0841 35.6871H22.4077C22.8654 35.6871 23.2469 35.3713 23.3041 34.9256L23.9907 30.2078C25.1159 29.762 26.1458 29.1677 27.0803 28.4619L31.6385 30.245C32.0581 30.3935 32.5349 30.245 32.7637 29.8363L36.4255 23.6698C36.6544 23.2612 36.559 22.7969 36.1966 22.5368L32.3632 19.6022ZM18.7459 24.5428C14.9697 24.5428 11.8801 21.5338 11.8801 17.8562C11.8801 14.1786 14.9697 11.1697 18.7459 11.1697C22.5221 11.1697 25.6118 14.1786 25.6118 17.8562C25.6118 21.5338 22.5221 24.5428 18.7459 24.5428Z" fill="#4979D1"/>
</svg>
